<?xml version="1.0" encoding="iso-8859-1"?>
<!-- Uploaded to: SVG Repo, www.svgrepo.com, Generator: SVG Repo Mixer Tools -->
<!DOCTYPE svg PUBLIC "-//W3C//DTD SVG 1.1//EN" "http://www.w3.org/Graphics/SVG/1.1/DTD/svg11.dtd">
<svg height="800px" width="800px" version="1.1" id="Capa_1" xmlns="http://www.w3.org/2000/svg" xmlns:xlink="http://www.w3.org/1999/xlink" 
	 viewBox="0 0 297.5 297.5" xml:space="preserve">
<g>
	<g id="XMLID_28_">
		<g>
			<path style="fill:#BCE6EC;" d="M108.14,29.04h81.22c-4.51,18.22-21,31.77-40.61,31.77C129.15,60.81,112.66,47.26,108.14,29.04z"
				/>
			<path style="fill:#CDD9DD;" d="M277.12,73.09v60.01l-17.42-17.43c-2.88-2.88-7.21-3.73-10.98-2.18c-3.76,1.56-6.21,5.23-6.21,9.3
				v145.67H55V122.79c0-4.07-2.46-7.74-6.22-9.3c-3.76-1.55-8.09-0.7-10.97,2.18L20.39,133.1V73.09
				c2.69-5.81,10.84-23.09,16.59-32.3c6.62-10.61,24.07-11.75,31.27-11.75H87.6c4.83,29.4,30.41,51.91,61.15,51.91
				c30.75,0,56.33-22.51,61.15-51.91h19.36c7.19,0,24.64,1.14,31.27,11.75C266.27,50,274.42,67.28,277.12,73.09z M221.87,121.22
				c0-3.89-3.15-7.05-7.05-7.05h-8.68v-8.68c0-3.89-3.16-7.05-7.05-7.05s-7.05,3.16-7.05,7.05v8.68h-8.68
				c-3.89,0-7.05,3.16-7.05,7.05s3.16,7.05,7.05,7.05h8.68v8.68c0,3.89,3.16,7.05,7.05,7.05s7.05-3.16,7.05-7.05v-8.68h8.68
				C218.72,128.27,221.87,125.11,221.87,121.22z M67.77,53.58c0-1.46-0.59-2.89-1.63-3.92c-1.02-1.02-2.44-1.62-3.9-1.62
				c-1.46,0-2.89,0.6-3.92,1.62c-1.04,1.04-1.62,2.46-1.62,3.92c0,1.45,0.58,2.88,1.62,3.91c1.03,1.03,2.46,1.63,3.92,1.63
				c1.45,0,2.88-0.6,3.9-1.63C67.18,56.46,67.77,55.04,67.77,53.58z M67.77,70.89c0-1.46-0.59-2.89-1.63-3.92
				c-1.02-1.04-2.44-1.62-3.9-1.62c-1.46,0-2.89,0.58-3.92,1.62c-1.04,1.03-1.62,2.46-1.62,3.92c0,1.45,0.58,2.87,1.62,3.9
				c1.03,1.04,2.46,1.63,3.92,1.63c1.45,0,2.88-0.59,3.9-1.63C67.18,73.76,67.77,72.34,67.77,70.89z"/>
			<path d="M297.25,70.88v86.52c0,4.07-2.45,7.75-6.21,9.3c-3.76,1.56-8.09,0.7-10.97-2.18l-17.43-17.42v131.43
				c0,5.56-4.5,10.07-10.06,10.07H44.93c-5.56,0-10.07-4.51-10.07-10.07V147.1l-17.42,17.42c-2.88,2.88-7.21,3.74-10.97,2.18
				c-3.76-1.55-6.22-5.23-6.22-9.3V70.88c0-1.44,0.31-2.86,0.91-4.17c0.45-0.99,11.1-24.34,18.74-36.58
				C28.45,16.44,45.62,8.9,68.25,8.9h161.01c22.63,0,39.8,7.54,48.35,21.23c7.64,12.24,18.29,35.59,18.74,36.58
				C296.95,68.02,297.25,69.44,297.25,70.88z M277.12,133.1V73.09c-2.7-5.81-10.85-23.09-16.59-32.3
				c-6.63-10.61-24.08-11.75-31.27-11.75H209.9c-4.82,29.4-30.4,51.91-61.15,51.91c-30.74,0-56.32-22.51-61.15-51.91H68.25
				c-7.2,0-24.65,1.14-31.27,11.75c-5.75,9.21-13.9,26.49-16.59,32.3v60.01l17.42-17.43c2.88-2.88,7.21-3.73,10.97-2.18
				c3.76,1.56,6.22,5.23,6.22,9.3v145.67h187.51V122.79c0-4.07,2.45-7.74,6.21-9.3c3.77-1.55,8.1-0.7,10.98,2.18L277.12,133.1z
				 M189.36,29.04h-81.22c4.52,18.22,21.01,31.77,40.61,31.77C168.36,60.81,184.85,47.26,189.36,29.04z"/>
			<path d="M214.82,114.17c3.9,0,7.05,3.16,7.05,7.05s-3.15,7.05-7.05,7.05h-8.68v8.68c0,3.89-3.16,7.05-7.05,7.05
				s-7.05-3.16-7.05-7.05v-8.68h-8.68c-3.89,0-7.05-3.16-7.05-7.05s3.16-7.05,7.05-7.05h8.68v-8.68c0-3.89,3.16-7.05,7.05-7.05
				s7.05,3.16,7.05,7.05v8.68H214.82z"/>
			<path d="M66.14,49.66c1.04,1.03,1.63,2.46,1.63,3.92c0,1.46-0.59,2.88-1.63,3.91c-1.02,1.03-2.45,1.63-3.9,1.63
				c-1.46,0-2.89-0.6-3.92-1.63c-1.04-1.03-1.62-2.46-1.62-3.91c0-1.46,0.58-2.88,1.62-3.92c1.03-1.02,2.46-1.62,3.92-1.62
				C63.7,48.04,65.12,48.64,66.14,49.66z"/>
			<path d="M66.14,66.97c1.04,1.03,1.63,2.46,1.63,3.92c0,1.45-0.59,2.87-1.63,3.9c-1.02,1.04-2.45,1.63-3.9,1.63
				c-1.46,0-2.89-0.59-3.92-1.63c-1.04-1.03-1.62-2.45-1.62-3.9c0-1.46,0.58-2.89,1.62-3.92c1.03-1.04,2.46-1.62,3.92-1.62
				C63.7,65.35,65.12,65.93,66.14,66.97z"/>
		</g>
		<g>
		</g>
	</g>
</g>
</svg>